<?xml version="1.0" encoding="UTF-8" standalone="no"?>
<!-- Generator: Adobe Illustrator 26.0.1, SVG Export Plug-In . SVG Version: 6.00 Build 0)  -->

<svg
   version="1.1"
   id="Camada_1"
   x="0px"
   y="0px"
   viewBox="0 0 113.30808 90.992819"
   xml:space="preserve"
   sodipodi:docname="logo.svg"
   inkscape:version="1.1.1 (c3084ef, 2021-09-22)"
   width="113.30808"
   height="90.992821"
   xmlns:inkscape="http://www.inkscape.org/namespaces/inkscape"
   xmlns:sodipodi="http://sodipodi.sourceforge.net/DTD/sodipodi-0.dtd"
   xmlns="http://www.w3.org/2000/svg"
   xmlns:svg="http://www.w3.org/2000/svg"><defs
   id="defs117" /><sodipodi:namedview
   id="namedview115"
   pagecolor="#ffffff"
   bordercolor="#666666"
   borderopacity="1.0"
   inkscape:pageshadow="2"
   inkscape:pageopacity="0.0"
   inkscape:pagecheckerboard="0"
   showgrid="false"
   inkscape:zoom="0.8516552"
   inkscape:cx="-170.84379"
   inkscape:cy="21.722406"
   inkscape:window-width="1470"
   inkscape:window-height="1017"
   inkscape:window-x="155"
   inkscape:window-y="18"
   inkscape:window-maximized="0"
   inkscape:current-layer="Camada_1"
   fit-margin-top="16"
   fit-margin-left="0"
   fit-margin-right="0"
   fit-margin-bottom="0" />
<style
   type="text/css"
   id="style80">
	.st0{fill:#010202;}
	.st1{font-family:'Cocogoose-Light';}
	.st2{font-size:24.0409px;}
	.st3{fill:none;stroke:#010202;stroke-width:2;stroke-miterlimit:10;}
	.st4{font-size:40.7294px;}
</style>




<g
   id="g102"
   transform="translate(-116.94053,-399.98768)">
	<path
   class="st0"
   d="m 117.22,445.37 c 0.4,0.67 0.8,1.34 1.21,2 1.23,1.96 2.72,3.68 4.46,5.22 1.94,1.71 4,3.2 6.22,4.52 2.63,1.57 5.37,2.87 8.21,4 3.74,1.49 7.58,2.68 11.51,3.55 2.14,0.48 4.29,0.9 6.45,1.27 2.11,0.36 4.22,0.65 6.34,0.91 1.24,0.15 2.49,0.21 3.74,0.27 2.57,0.13 5.14,0.24 7.77,0.37 0.01,0.12 0.03,0.3 0.03,0.49 0,6.32 0,12.63 0,18.95 0,0.21 -0.04,0.43 -0.09,0.63 -0.15,0.65 0.13,1.36 0.64,1.6 0.52,0.25 1.25,-0.06 1.71,-0.51 0.52,-0.52 1.16,-0.94 1.76,-1.39 3.22,-2.36 6.43,-4.73 9.66,-7.08 2.64,-1.92 5.29,-3.82 7.93,-5.75 2.72,-1.99 5.42,-4.02 8.14,-6.02 2.79,-2.05 5.58,-4.08 8.38,-6.12 2.67,-1.95 5.38,-3.85 8,-5.87 1.52,-1.16 2.91,-2.49 4.33,-3.78 1.07,-0.98 2.18,-1.94 3.13,-3.03 1.06,-1.2 1.95,-2.54 2.93,-3.81 0.12,-0.15 0.3,-0.25 0.45,-0.37 0.04,0.18 0.15,0.37 0.11,0.53 -0.25,1.23 -0.51,2.46 -0.79,3.68 -0.77,3.25 -1.63,6.48 -2.29,9.75 -0.41,2.03 -0.83,4.04 -1.59,5.97 -1.06,2.67 -2.33,5.24 -4.14,7.48 -1.26,1.56 -2.61,3.07 -4.06,4.45 -1.97,1.87 -4.23,3.4 -6.57,4.78 -3.89,2.31 -8.02,4.07 -12.36,5.3 -2.82,0.8 -5.68,1.47 -8.55,2.06 -2.23,0.46 -4.51,0.75 -6.77,1.05 -1.26,0.17 -2.53,0.23 -3.8,0.27 -3.64,0.11 -7.28,0.25 -10.92,0.24 -1.93,-0.01 -3.86,-0.25 -5.77,-0.51 -2.52,-0.33 -5.05,-0.64 -7.52,-1.22 -2.79,-0.65 -5.53,-1.54 -8.26,-2.41 -3.42,-1.09 -6.66,-2.63 -9.82,-4.33 -3.79,-2.04 -7.23,-4.56 -10.1,-7.8 -1.92,-2.17 -3.44,-4.6 -4.61,-7.27 -1,-2.3 -1.63,-4.7 -2.17,-7.13 -0.74,-3.3 -1.48,-6.6 -2.21,-9.91 -0.33,-1.5 -0.67,-2.99 -0.99,-4.49 -0.03,-0.16 0.02,-0.34 0.03,-0.5 0.07,0 0.16,-0.02 0.24,-0.04 z"
   id="path98" />
	<path
   class="st0"
   d="m 141.29,446.13 c -1.25,-1.08 -2.6,-2.12 -3.8,-3.31 -1.67,-1.67 -2.89,-3.67 -3.35,-6.01 -0.5,-2.54 0.06,-4.93 1.41,-7.14 1.71,-2.81 4.19,-4.78 6.93,-6.46 2.94,-1.8 6.11,-3.1 9.4,-4.12 2.89,-0.9 5.82,-1.63 8.82,-2.04 1.7,-0.23 3.39,-0.43 5.09,-0.65 3.6,-0.46 7.22,-0.45 10.83,-0.37 2.01,0.05 4.02,0.33 6.04,0.49 3.48,0.28 6.89,0.96 10.25,1.85 2.65,0.7 5.25,1.58 7.77,2.7 2.49,1.11 4.86,2.41 6.99,4.1 2.52,2.01 4.61,4.36 5.37,7.63 0.66,2.87 0.04,5.49 -1.55,7.9 -1.34,2.04 -3.13,3.64 -5.12,5.04 -0.34,0.24 -0.51,0.19 -0.75,-0.08 -2.64,-2.85 -5.86,-4.87 -9.36,-6.47 -3.34,-1.53 -6.82,-2.66 -10.43,-3.32 -1.85,-0.34 -3.69,-0.76 -5.56,-0.88 -3.26,-0.21 -6.54,-0.37 -9.81,-0.26 -3.93,0.14 -7.84,0.7 -11.63,1.81 -2.3,0.67 -4.57,1.48 -6.81,2.34 -2.56,0.98 -4.91,2.39 -7.09,4.06 -1.22,0.95 -2.33,2.04 -3.64,3.19 z"
   id="path100" />
</g>



</svg>
